<svg xmlns="http://www.w3.org/2000/svg" version="1.1" xmlns:xlink="http://www.w3.org/1999/xlink" xmlns:svgjs="http://svgjs.dev/svgjs" width="1500" height="219" viewBox="0 0 1500 219"><g transform="matrix(1,0,0,1,-0.909090907844643,-0.7570168773436876)"><svg viewBox="0 0 396 58" data-background-color="#ffffff" preserveAspectRatio="xMidYMid meet" height="219" width="1500" xmlns="http://www.w3.org/2000/svg" xmlns:xlink="http://www.w3.org/1999/xlink"><g id="tight-bounds" transform="matrix(1,0,0,1,0.2399999996709994,0.20048848806362685)"><svg viewBox="0 0 395.52 57.599023023872746" height="57.599023023872746" width="395.52"><g><svg viewBox="0 0 665.4238127426489 96.90473682948277" height="57.599023023872746" width="395.52"><g><rect width="8.69549171439917" height="96.90473682948277" x="238.44525371306872" y="0" fill="#152232" opacity="1" stroke-width="0" stroke="transparent" fill-opacity="1" class="rect-yte-0" data-fill-palette-color="primary" rx="1%" id="yte-0" data-palette-color="#152232"></rect></g><g transform="matrix(1,0,0,1,269.90381274264894,0.24105655927731817)"><svg viewBox="0 0 395.52 96.42262371092814" height="96.42262371092814" width="395.52"><g id="textblocktransform"><svg viewBox="0 0 395.52 96.42262371092814" height="96.42262371092814" width="395.52" id="textblock"><g><svg viewBox="0 0 395.52 96.42262371092814" height="96.42262371092814" width="395.52"><g transform="matrix(1,0,0,1,0,0)"><svg width="395.52" viewBox="2 -34.85178493576 142.93999999937498 34.85178493576" height="96.42262371092814" data-palette-color="#152232"><path d="M11.2-0.05L2.25 0Q2 0 2-0.25L2-0.25 2.1-34.6Q2.1-34.8 2.3-34.8L2.3-34.8 11.65-34.85Q14.4-34.9 16.68-33.55 18.95-32.2 20.3-29.93 21.65-27.65 21.65-24.9L21.65-24.9 21.65-10.55Q21.65-7.65 20.25-5.28 18.85-2.9 16.5-1.5 14.15-0.1 11.2-0.05L11.2-0.05ZM8.15-28.8L8.1-6.15 11.2-6.15Q13.05-6.15 14.33-7.45 15.6-8.75 15.6-10.55L15.6-10.55 15.6-24.95Q15.6-26.55 14.43-27.73 13.25-28.9 11.65-28.85L11.65-28.85 8.15-28.8ZM22.4-0.25L22.4-0.25 28.6-34.6Q28.65-34.8 28.85-34.8L28.85-34.8 36.1-34.8Q36.3-34.8 36.35-34.6L36.35-34.6 42.3-0.25Q42.35 0 42.1 0L42.1 0 36.55 0Q36.35 0 36.3-0.25L36.3-0.25 35.75-3.9 28.95-3.9 28.4-0.25Q28.35 0 28.15 0L28.15 0 22.6 0Q22.4 0 22.4-0.25ZM32.2-23.3L29.95-9.25 34.75-9.25 32.7-23.3 32.4-25.15 32.2-23.3ZM50.9 0L45.9 0Q45.5 0 45.5-0.35L45.5-0.35 45.45-34.4Q45.45-34.8 45.85-34.8L45.85-34.8 50.35-34.8 58.8-15.1 58.55-34.4Q58.55-34.8 59-34.8L59-34.8 63.95-34.8Q64.25-34.8 64.25-34.4L64.25-34.4 64.3-0.3Q64.3 0 64.05 0L64.05 0 59.65 0 51-18.4 51.35-0.4Q51.35 0 50.9 0L50.9 0ZM74.54 0L68.89 0Q68.64 0 68.64-0.25L68.64-0.25 68.69-34.6Q68.69-34.8 68.89-34.8L68.89-34.8 74.49-34.8Q74.69-34.8 74.69-34.6L74.69-34.6 74.74-0.25Q74.74 0 74.54 0L74.54 0ZM95.49 0L79.34 0Q79.14 0 79.14-0.25L79.14-0.25 79.19-34.6Q79.19-34.8 79.39-34.8L79.39-34.8 95.44-34.8Q95.64-34.8 95.64-34.55L95.64-34.55 95.64-28.95Q95.64-28.75 95.44-28.75L95.44-28.75 85.19-28.75 85.19-20.95 95.44-20.95Q95.64-20.95 95.64-20.75L95.64-20.75 95.69-15.1Q95.69-14.9 95.49-14.9L95.49-14.9 85.19-14.9 85.19-6.15 95.49-6.15Q95.69-6.15 95.69-5.9L95.69-5.9 95.69-0.2Q95.69 0 95.49 0L95.49 0ZM116.49 0L100.34 0Q100.14 0 100.14-0.25L100.14-0.25 100.19-34.55Q100.19-34.8 100.44-34.8L100.44-34.8 105.99-34.8Q106.24-34.8 106.24-34.55L106.24-34.55 106.19-6.15 116.49-6.15Q116.74-6.15 116.74-5.9L116.74-5.9 116.74-0.25Q116.74 0 116.49 0L116.49 0ZM125.84 0L120.19 0Q119.99 0 119.99-0.2L119.99-0.2 119.99-5.85Q119.99-6.05 120.19-6.05L120.19-6.05 125.84-6.05Q126.04-6.05 126.04-5.85L126.04-5.85 126.04-0.2Q126.04 0 125.84 0L125.84 0ZM138.03 0L132.28 0Q132.13 0 132.13-0.2L132.13-0.2 132.18-14.4 125.48-34.6Q125.43-34.8 125.63-34.8L125.63-34.8 131.18-34.8Q131.43-34.8 131.48-34.6L131.48-34.6 135.18-21.15 138.93-34.6Q138.98-34.8 139.18-34.8L139.18-34.8 144.78-34.8Q144.98-34.8 144.93-34.6L144.93-34.6 138.18-14.6 138.23-0.2Q138.23 0 138.03 0L138.03 0Z" opacity="1" transform="matrix(1,0,0,1,0,0)" fill="#152232" class="wordmark-text-0" data-fill-palette-color="primary" id="text-0"></path></svg></g></svg></g></svg></g></svg></g><g transform="matrix(1,0,0,1,0,0.24105655927731107)"><svg viewBox="0 0 215.68218639788765 96.42262371092815" height="96.42262371092815" width="215.68218639788765"><g><svg xmlns="http://www.w3.org/2000/svg" xml:space="preserve" version="1.0" viewBox="5 32.65300000000001 90.02058228862381 40.24449527900199" x="0" y="0" height="96.42262371092815" width="215.68218639788765" class="icon-icon-0" data-fill-palette-color="accent" id="icon-0"><path d="M79.831 68.229c-1.856-2.528-4.197-4.547-6.745-6.347-1.355-0.954-2.818-1.743-4.122-2.777a138 138 0 0 0-4.228-3.216c-3.878-2.849-7.881-5.52-11.81-8.298-1.639-1.16-2.377-2.861-2.487-4.833-0.047-0.854 0.358-1.18 1.245-1.098 0.8 0.075 1.592 0.199 2.359 0.443 1.374 0.439 2.775 0.727 4.225 0.736 0.71 0.004 1.387-0.165 1.971-0.547a12.1 12.1 0 0 0 3.421-3.343c0.021-0.028-0.018-0.097-0.042-0.201-0.955 0-1.923 0.015-2.89-0.008-0.341-0.008-0.562 0.118-0.789 0.354-0.628 0.655-1.415 1.052-2.281 1.284-1.757 0.468-3.396-0.014-5.188-0.659 1.573-0.155 3.113 0.316 4.447-1.005-1.141 0-2.099-0.036-3.055 0.009-0.949 0.046-1.727 0.779-2.732 0.698 1.096 0.722 2.148 1.433 3.104 2.31-0.525-0.064-1.012-0.284-1.512-0.312-0.753-0.044-1.198-0.495-1.646-0.99-0.11-0.125-0.206-0.26-0.315-0.385-0.95-1.081-1.79-2.261-2.91-3.186-0.203-0.167-0.373-0.441-0.757-0.253 1.011 1.257 1.712 2.691 2.523 4.06l-0.107 0.142c-0.983-0.067-1.759-0.45-2.381-1.14a4.5 4.5 0 0 1-0.405-0.525c-0.428-0.644-0.781-1.35-1.252-1.938-0.657-0.823-1.261-1.68-1.884-2.524-0.212-0.287-0.483-0.44-0.8-0.555-0.984-0.359-1.974-0.706-2.949-1.087-1.347-0.528-2.72-0.375-4.094-0.192-0.948 0.126-1.432 0.768-1.328 1.838 0.08 0.827 0.145 1.668 0.015 2.488-0.135 0.854 0.009 1.665 0.254 2.453 0.449 1.447 0.96 2.875 1.461 4.307 0.567 1.62 1.179 3.238 2.154 4.649 2.021 2.925 4.33 5.624 7.04 7.932 3.181 2.712 6.453 5.316 9.66 7.999 1.868 1.564 3.724 3.151 5.282 5.041 0.695 0.841 1.312 1.719 1.176 2.914 0.264 0.02 0.482 0.049 0.701 0.051q2.66 0.04 5.32 0.069c0.797 0.009 0.841-0.057 0.737-0.854-0.044-0.335-0.169-0.638-0.313-0.938-0.276-0.578-0.651-1.089-1.051-1.588-1.42-1.766-3.211-3.131-4.963-4.527-3.829-3.054-7.713-6.038-11.554-9.077-1.454-1.148-2.969-2.231-4.256-3.577-1.34-1.402-2.589-2.883-3.822-4.382-0.966-1.173-1.628-2.455-2.069-3.916-0.446-1.478-0.25-2.844 0.287-4.205 0.361-0.912 1.044-1.201 1.994-0.916a63 63 0 0 1 2.363 0.762c0.798 0.277 1.584 0.589 2.376 0.885-0.238 0.11-0.452 0.109-0.667 0.11-1.404 0.009-1.683 0.248-2.115 1.583-0.216 0.667-0.066 1.253 0.205 1.836 0.222 0.478 0.473 0.94 0.736 1.393 1.135 1.954 2.487 3.759 4.263 5.153 5.768 4.527 11.819 8.676 17.646 13.125 1.673 1.278 3.352 2.546 4.804 4.082 1.371 1.45 2.688 2.941 2.78 5.204l6.034 0.001c0.771 0 0.81-0.046 0.684-0.8-0.233-1.399-0.929-2.592-1.748-3.712M27.882 67.337c-0.868-1.695-1.802-3.356-2.637-5.066-1.553-3.185-2.857-6.423-3.188-10.032-0.317-3.458 0.062-6.784 1.013-10.085 0.265-0.919 0.608-1.811 0.965-2.693-0.429-0.228-0.681 0.027-0.957 0.199-1.291 0.807-2.471 1.781-3.762 2.578a9.96 9.96 0 0 0-3.213 3.156c-0.5 0.779-1.196 1.421-1.587 2.276 0.328 0.019 0.531-0.187 0.731-0.382l0.079-0.075 0.007-0.006 0.097-0.084c1.523-1.199 2.894-2.573 4.359-3.837 0.212-0.183 0.391-0.445 0.702-0.469 0.167 0.312-0.071 0.403-0.195 0.516-1.853 1.672-3.472 3.564-5.132 5.42-1.143 1.279-2.292 2.567-3.66 3.609a12.2 12.2 0 0 0-2.572 2.66c-1.256 1.759-2.572 3.477-3.879 5.234 0.116 0.021 0.185 0.057 0.217 0.035a9 9 0 0 0 0.541-0.382c2.885-2.15 5.309-4.757 7.506-7.586 1.034-1.33 2.057-2.668 3.085-4.002l0.15 0.24q-1.178 1.896-2.358 3.791c-2.244 3.599-4.719 7.019-7.659 10.093A50 50 0 0 1 5 63.96v4.642c0.294-0.461 0.581-0.926 0.939-1.339 1.563-1.798 3.013-3.681 4.261-5.712 2.3-3.738 4.321-7.63 6.284-11.551 0.727-1.454 1.519-2.869 2.468-4.192l0.168 0.119c-0.278 0.572-0.585 1.132-0.827 1.717-1.367 3.314-2.791 6.604-3.949 10.002a53 53 0 0 1-2.182 5.453 5.3 5.3 0 0 0-0.442 1.5c-0.064 0.438-0.121 0.876-0.191 1.313-0.36 2.238-1.165 4.258-2.872 5.833-0.028 0.025-0.009 0.103-0.016 0.232 2.052 0 4.098-0.01 6.145 0.01 0.356 0.002 0.558-0.168 0.76-0.409 0.832-0.998 1.198-2.165 1.267-3.441 0.078-1.416-0.065-2.823-0.238-4.225-0.223-1.812-0.434-3.588 0.042-5.423 0.566-2.189 0.693-4.478 1.371-6.65 0.729-2.342 1.339-4.728 2.342-6.978 0.444-0.995 0.936-1.968 1.597-2.872 0.226 0.371-0.021 0.637-0.126 0.898-0.944 2.313-1.51 4.731-1.947 7.179-0.44 2.467-0.319 4.971-0.379 7.461-0.005 0.164 0.025 0.333 0.065 0.492 0.294 1.18 0.582 2.36 0.897 3.534 0.538 1.998 1.313 3.925 1.798 5.938 0.369 1.529 0.609 3.061-0.488 4.437-0.016 0.021 0.029 0.089 0.064 0.188 1.921 0 3.86-0.002 5.798 0 0.842 0 0.985-0.112 1.191-0.912 0.091-0.354 0.11-0.703 0.061-1.068-0.135-1.001-0.525-1.915-0.979-2.799" fill="#5e8ebd" data-fill-palette-color="accent"></path><path d="M14.505 47.684l0.004-0.002q0.004-0.006 0.006-0.013l-0.024-0.001q0.008 0.01 0.014 0.016M14.489 47.78a0.05 0.05 0 0 0 0.027-0.015q0.005-0.008 0.006-0.016l0.004-0.008q0.001-0.011-0.004-0.024v-0.002a0.1 0.1 0 0 0-0.017-0.031l-0.111 0.059c0.032 0.014 0.069 0.046 0.095 0.037M94.996 72.358c-0.134-0.822-0.309-1.646-0.669-2.385-0.715-1.457-0.714-2.984-0.605-4.536 0.098-1.437 0.137-2.876 0.106-4.316-0.011-0.475-0.161-0.83-0.455-1.193-1.201-1.482-2.36-2.999-3.562-4.482-0.549-0.676-1.029-1.415-1.674-2.03-0.17 0.218-0.098 0.416-0.115 0.597-0.113 1.188-0.621 1.615-1.799 1.517-0.701-0.059-1.341-0.321-1.963-0.614-1.42-0.674-2.814-1.403-4.243-2.053-2.938-1.337-5.987-2.395-9.04-3.432-1.293-0.439-2.254-1.133-2.639-2.489a1.04 1.04 0 0 0-0.496-0.633c-0.201-0.118-0.448-0.202-0.509-0.342l3.376-7.15c-1.094 0-2.034 0.027-2.971-0.011-0.449-0.02-0.688 0.126-0.904 0.52-0.892 1.617-1.821 3.212-2.735 4.815-0.429 0.754-0.427 0.756-1.248 0.6-0.733-0.14-1.468-0.263-2.195-0.432-0.467-0.11-0.931-0.108-1.401-0.118-0.447-0.011-0.789 0.171-1.095 0.546 0.602 0.529 1.265 0.921 1.912 1.32 1.688 1.037 3.335 2.132 5.195 2.886 1.421 0.575 2.883 1.149 3.908 2.407 1.493 1.832 3.358 3.294 4.998 4.98 0.623 0.639 1.344 1.131 2.112 1.586 3.688 2.178 6.92 4.863 9.288 8.484 1.23 1.878 2.371 3.801 2.609 6.104 0.037 0.342 0.277 0.286 0.488 0.289 1.965 0.034 3.931 0.049 5.897 0.104 0.465 0.011 0.491-0.161 0.429-0.539M54.489 70.436c-0.393-0.672-0.874-1.279-1.397-1.853-1.945-2.135-4.142-4.001-6.318-5.89-2.931-2.541-5.87-5.068-8.34-8.087-1.545-1.89-3-3.821-3.961-6.093-1.001-2.362-1.873-4.776-2.836-7.153-0.156-0.385-0.215-0.795-0.241-1.214a96 96 0 0 0-0.246-2.977c-0.134-1.453 0.144-2.857 0.993-4.1 0.071-0.104 0.208-0.199 0.026-0.416-0.574 0.348-1.144 0.726-1.743 1.05-1.08 0.583-1.652 1.503-1.872 2.677a6 6 0 0 0-0.066 0.493c-0.128 1.469 0.049 2.929 0.097 4.393 0.043 1.358 0.395 2.611 0.89 3.852 0.685 1.716 1.314 3.455 2.026 5.161 0.66 1.579 1.407 3.119 2.393 4.533 1.893 2.716 4.119 5.139 6.471 7.454 1.936 1.902 3.942 3.736 5.754 5.764 0.666 0.743 1.309 1.509 1.763 2.401 0.289 0.562 0.55 1.152 0.174 2.003l5.953 0.001c0.95 0 1.15-0.259 0.866-1.177a4 4 0 0 0-0.386-0.822" fill="#5e8ebd" data-fill-palette-color="accent"></path><path d="M40.693 68.826c-1.387-1.98-3.098-3.687-4.675-5.506-1.994-2.303-3.959-4.629-5.462-7.297-1.274-2.268-2.245-4.674-3.066-7.134-0.411-1.227-0.876-2.445-1.053-3.739-0.343-2.495-0.056-4.972 0.176-7.454 0.037-0.406 0.385-0.716 0.32-1.14-0.166-0.012-0.247 0.06-0.334 0.128-1.083 0.876-1.681 2.035-1.933 3.377-0.179 0.951-0.301 1.913-0.464 2.867-0.289 1.676-0.39 3.368-0.132 5.045a32.4 32.4 0 0 0 2.979 9.44c1.459 2.971 3.378 5.637 5.292 8.312 0.851 1.191 1.749 2.353 2.385 3.682 0.416 0.866 0.657 1.756 0.115 2.868 2.151 0 4.144 0.002 6.136-0.001 0.671-0.001 0.8-0.138 0.822-0.815 0.013-0.397-0.084-0.771-0.237-1.13a8.6 8.6 0 0 0-0.869-1.503M71.833 47.306c0.773 0.395 1.508 0.218 2.203-0.185 0.762-0.442 1.548-0.875 1.81-1.83 0.466-1.7 0.935-3.4 1.426-5.094 0.089-0.305 0.037-0.512-0.14-0.758-0.295-0.412-0.622-0.656-1.172-0.582a5 5 0 0 1-1.242-0.001c-0.492-0.055-0.721 0.117-0.894 0.597-0.66 1.84-1.381 3.659-2.062 5.49-0.255 0.684-0.573 1.315-1.215 1.831 0.433 0.303 0.894 0.333 1.286 0.532M75.627 48.175c-0.339-0.013-0.673-0.048-1.143 0.084 1.777 0.556 3.368 1.229 4.993 1.81 0.727 0.26 1.475 0.461 2.268 0.428 1.087-0.045 1.682-0.532 1.908-1.598 0.04-0.19 0.04-0.388 0.092-0.574 0.079-0.294 0.012-0.53-0.178-0.767-1.093-1.355-2.172-2.72-3.32-4.162-0.167 0.28-0.178 0.5-0.217 0.715-0.146 0.816-0.274 1.636-0.566 2.416-0.392 1.042-1.163 1.586-2.26 1.651-0.523 0.033-1.052 0.02-1.577-0.003M20.285 39.799c0.846-0.351 1.47-0.783 2.139-1.166-1.112-0.438-1.578 0.286-2.139 1.166" fill="#5e8ebd" data-fill-palette-color="accent"></path></svg></g></svg></g></svg></g><defs></defs></svg><rect width="395.52" height="57.599023023872746" fill="none" stroke="none" visibility="hidden"></rect></g></svg></g></svg>